<svg width="300" height="300" viewBox="0 0 300 300" fill="none" xmlns="http://www.w3.org/2000/svg">
<path fill-rule="evenodd" clip-rule="evenodd" d="M137.318 0.528564C70.2963 45.3975 22.3629 116.558 8.27398 199.254C2.91299 183.827 0 167.254 0 150C0 71.4287 60.4106 6.96697 137.318 0.528564Z" fill="#0C0A09"/>
<path fill-rule="evenodd" clip-rule="evenodd" d="M8.27399 199.254C24.2284 245.168 61.8639 280.937 108.925 294.307C105.701 280.055 104 265.226 104 250C104 152.86 173.253 71.8952 265.081 53.7844C237.565 20.9087 196.224 0 150 0C145.729 0 141.499 0.178534 137.318 0.528546C70.2963 45.3974 22.3629 116.558 8.27399 199.254Z" fill="#7A9E7E"/>
<path fill-rule="evenodd" clip-rule="evenodd" d="M207.683 288.508C202.734 276.655 200 263.647 200 250C200 194.772 244.772 150 300 150C300 113.382 286.879 79.8281 265.081 53.7844C173.253 71.8953 104 152.86 104 250C104 265.226 105.701 280.055 108.925 294.307C121.978 298.015 135.757 300 150 300C170.44 300 189.926 295.911 207.683 288.508Z" fill="#E3B505"/>
<path fill-rule="evenodd" clip-rule="evenodd" d="M207.683 288.508C261.895 265.905 300 212.402 300 150C244.772 150 200 194.772 200 250C200 263.647 202.734 276.655 207.683 288.508Z" fill="#FAFAF9"/>
</svg>
